<svg width="229" height="75" viewBox="0 0 229 75" fill="none" xmlns="http://www.w3.org/2000/svg">
<path d="M125.05 19.19C122.63 16.53 119.77 15.19 116.47 15.19H100.38V41.14H116.47C119.77 41.14 122.63 39.81 125.05 37.14C127.44 34.51 128.65 31.6 128.68 28.16C128.65 24.73 127.44 21.82 125.05 19.19ZM117.61 32.43C116.34 33.55 114.62 34.1 112.44 34.1H109.07V22.22H112.44C114.62 22.22 116.34 22.78 117.61 23.9C118.84 24.99 119.47 26.48 119.51 28.16C119.47 29.86 118.84 31.35 117.61 32.43Z" fill="black"/>
<path d="M153.21 15.86C149.14 13.83 145.76 13.72 142.25 13.92C140.2 14.04 137.56 14.49 134.81 15.38C134.32 15.54 133.83 15.72 133.34 15.91C133.64 16.81 134.09 17.6 134.88 18.37C134.91 18.39 134.94 18.43 134.97 18.46C137.3 20.59 142.24 19.58 145.8 20.11C149.36 20.64 149.98 24.02 149.98 24.02C148.05 22.97 145.73 22.36 143.23 22.36C136.66 22.36 131.31 26.58 131.31 31.76C131.31 36.78 136.33 40.91 142.62 41.14C143.56 41.18 145.22 41.13 147.43 40.61C155.56 38.71 159.12 40.65 159.12 40.65V26.72C159.12 19.92 156.55 17.52 153.21 15.86ZM145.37 35.79C142.56 35.79 140.28 34.01 140.28 31.8C140.28 29.6 142.56 27.81 145.37 27.81C148.18 27.81 150.46 29.6 150.46 31.8C150.46 34.01 148.18 35.79 145.37 35.79Z" fill="black"/>
<path d="M215.75 15.86C211.68 13.83 208.29 13.72 204.78 13.92C202.73 14.04 200.09 14.49 197.35 15.38C196.86 15.54 196.37 15.72 195.87 15.91C196.17 16.81 196.62 17.6 197.41 18.37C197.44 18.39 197.47 18.43 197.5 18.46C199.83 20.59 204.76 19.58 208.33 20.11C211.89 20.64 212.52 24.02 212.52 24.02C210.59 22.97 208.27 22.36 205.77 22.36C199.2 22.36 193.86 26.58 193.86 31.76C193.86 36.78 198.88 40.91 205.16 41.14C206.1 41.18 207.77 41.13 209.98 40.61C218.11 38.71 221.67 40.65 221.67 40.65V26.72C221.66 19.92 219.08 17.52 215.75 15.86ZM207.91 35.79C205.1 35.79 202.82 34.01 202.82 31.8C202.82 29.6 205.1 27.81 207.91 27.81C210.72 27.81 213 29.6 213 31.8C213 34.01 210.72 35.79 207.91 35.79Z" fill="black"/>
<path d="M158.96 0H148.06C150.06 13.31 163.14 15.24 163.14 15.24C157.57 10.11 158.67 2.35 158.96 0Z" fill="black"/>
<path d="M190.66 24.61C190.66 21.14 189.63 18.89 187.69 17.23C185.84 15.65 183.49 15 181 15C178.74 15 176.99 15.48 175.58 16.01C168.25 18.77 163.97 15.91 163.97 15.91V41.14H172.8V24.06C172.8 24.06 174.48 22.29 177.31 22.2C180.14 22.11 181.85 23.81 181.85 27.69L181.84 41.14H190.66V24.61Z" fill="black"/>
<path d="M24.91 0L0 40.98H5.76L23.57 10.71V27.85H17.8L15.48 32.95H23.41V40.98H34.84V5.51C34.84 5.51 34.84 3.25 33.04 1.44C31.76 0.16 29.65 0 29.65 0H24.91Z" fill="black"/>
<path d="M39.79 16.47V40.97H48.75V26.67C48.75 26.67 49.21 22.19 53.28 22.19C57.09 22.19 57.86 25.23 57.86 27.08C57.86 28.93 57.86 40.98 57.86 40.98H66.92V22.65C66.92 22.65 66.15 14.98 57.96 14.98C53.79 14.98 50.96 16.47 50.96 16.47C50.96 16.47 45.04 20.13 39.79 16.47Z" fill="black"/>
<path d="M68.05 15.5C68.05 15.5 66.92 25.59 79.89 28.88C79.89 28.88 76.18 20.64 77.68 15.5H68.05Z" fill="black"/>
<path d="M87.71 15.5L76.6 40.98H85.55L95.85 15.5H87.71Z" fill="black"/>
<path d="M226.08 59.11C224.75 57.73 222.71 56.75 219.97 56.18C218.98 55.95 218.19 55.76 217.59 55.61C216.99 55.46 216.53 55.29 216.22 55.11C215.91 54.93 215.71 54.74 215.62 54.54C215.53 54.34 215.49 54.09 215.5 53.77C215.51 53.17 215.8 52.7 216.37 52.35C216.94 52.01 217.69 51.84 218.6 51.86C219.19 51.87 220.65 51.93 221.24 52.04C223.61 52.49 225.99 51.25 227.13 49.2L228.29 47.13C225.38 45.92 221.49 45.28 218.38 45.23C216.48 45.2 214.74 45.4 213.18 45.84C211.62 46.28 210.28 46.91 209.17 47.74C208.06 48.57 207.2 49.59 206.59 50.8C205.98 52.01 205.68 52.69 205.65 54.2C205.62 56.29 206.2 57.93 207.41 59.13C208.62 60.33 210.75 61.26 213.82 61.91C214.73 62.1 215.9 62.29 216.46 62.46C217.02 62.63 217.45 62.81 217.74 63.01C218.03 63.21 218.22 63.42 218.31 63.66C218.4 63.89 218.44 64.18 218.43 64.54C218.42 65.14 218.12 65.63 217.53 66.01C216.94 66.39 216.18 66.57 215.27 66.56C212.8 66.52 208.53 66.59 205.76 64.73L205.63 72.4C209.01 74.28 210.87 74.34 214.43 74.4C216.41 74.43 218.22 74.22 219.88 73.77C221.54 73.32 222.96 72.67 224.14 71.82C225.33 70.97 226.26 69.92 226.94 68.66C227.62 67.4 227.97 65.97 228 64.38C228.06 62.25 227.41 60.5 226.08 59.11Z" fill="black"/>
<path d="M168.69 53.74V74.39H159.38V45.24C164.52 45.24 168.69 49.05 168.69 53.74Z" fill="black"/>
<path d="M173.1 64.26C173.1 67.93 174.19 70.3 176.23 72.05C178.18 73.72 180.67 74.4 183.29 74.4C185.67 74.4 187.52 73.89 189.01 73.33C196.75 70.41 201.26 72.78 201.26 72.78V46.81H191.94V64.83C191.94 64.83 190.16 66.7 187.18 66.79C184.2 66.88 182.39 65.09 182.39 61L182.4 46.81H173.09V64.26H173.1Z" fill="black"/>
<path d="M136.96 74.39V65.06V58.85V54.05C136.96 52.56 136.96 52.6 138.08 52.6L140.21 52.57C143.68 52.57 147.03 52.27 147.03 56.3C147.03 59.69 145.33 61.08 141.21 61.08V68.59H142.75C146.97 68.59 150.2 67.72 152.45 65.99C154.69 64.26 155.82 60.4 155.82 57.26C155.82 54.11 154.7 49.58 152.45 47.85C150.21 46.12 146.97 45.25 142.75 45.25H127.19V67.57V74.4H136.96V74.39Z" fill="black"/>
</svg>
