<svg width="222" height="42" viewBox="0 0 222 42" fill="none" xmlns="http://www.w3.org/2000/svg">
<path d="M125.05 19.19C122.63 16.53 119.77 15.19 116.47 15.19H100.38V41.14H116.47C119.77 41.14 122.63 39.81 125.05 37.14C127.44 34.51 128.65 31.6 128.68 28.16C128.65 24.73 127.44 21.82 125.05 19.19ZM117.61 32.43C116.34 33.55 114.62 34.1 112.44 34.1H109.07V22.22H112.44C114.62 22.22 116.34 22.78 117.61 23.9C118.84 24.99 119.47 26.48 119.51 28.16C119.47 29.86 118.84 31.35 117.61 32.43Z" fill="black"/>
<path d="M153.21 15.86C149.14 13.83 145.76 13.72 142.25 13.92C140.2 14.04 137.56 14.49 134.81 15.38C134.32 15.54 133.83 15.72 133.34 15.91C133.64 16.81 134.09 17.6 134.88 18.37C134.91 18.39 134.94 18.43 134.97 18.46C137.3 20.59 142.24 19.58 145.8 20.11C149.36 20.64 149.98 24.02 149.98 24.02C148.05 22.97 145.73 22.36 143.23 22.36C136.66 22.36 131.31 26.58 131.31 31.76C131.31 36.78 136.33 40.91 142.62 41.14C143.56 41.18 145.22 41.13 147.43 40.61C155.56 38.71 159.12 40.65 159.12 40.65V26.72C159.12 19.92 156.55 17.52 153.21 15.86ZM145.37 35.79C142.56 35.79 140.28 34.01 140.28 31.8C140.28 29.6 142.56 27.81 145.37 27.81C148.18 27.81 150.46 29.6 150.46 31.8C150.46 34.01 148.18 35.79 145.37 35.79Z" fill="black"/>
<path d="M215.75 15.86C211.68 13.83 208.29 13.72 204.78 13.92C202.73 14.04 200.09 14.49 197.35 15.38C196.86 15.54 196.37 15.72 195.87 15.91C196.17 16.81 196.62 17.6 197.41 18.37C197.44 18.39 197.47 18.43 197.5 18.46C199.83 20.59 204.76 19.58 208.33 20.11C211.89 20.64 212.52 24.02 212.52 24.02C210.59 22.97 208.27 22.36 205.77 22.36C199.2 22.36 193.86 26.58 193.86 31.76C193.86 36.78 198.88 40.91 205.16 41.14C206.1 41.18 207.77 41.13 209.98 40.61C218.11 38.71 221.67 40.65 221.67 40.65V26.72C221.66 19.92 219.08 17.52 215.75 15.86ZM207.91 35.79C205.1 35.79 202.82 34.01 202.82 31.8C202.82 29.6 205.1 27.81 207.91 27.81C210.72 27.81 213 29.6 213 31.8C213 34.01 210.72 35.79 207.91 35.79Z" fill="black"/>
<path d="M158.96 0H148.06C150.06 13.31 163.14 15.24 163.14 15.24C157.57 10.11 158.67 2.35 158.96 0Z" fill="black"/>
<path d="M190.66 24.61C190.66 21.14 189.63 18.89 187.69 17.23C185.84 15.65 183.49 15 181 15C178.74 15 176.99 15.48 175.58 16.01C168.25 18.77 163.97 15.91 163.97 15.91V41.14H172.8V24.06C172.8 24.06 174.48 22.29 177.31 22.2C180.14 22.11 181.85 23.81 181.85 27.69L181.84 41.14H190.66V24.61Z" fill="black"/>
<path d="M24.91 0L0 40.98H5.76L23.57 10.71V27.85H17.8L15.48 32.95H23.41V40.98H34.84V5.51C34.84 5.51 34.84 3.25 33.04 1.44C31.76 0.16 29.65 0 29.65 0H24.91Z" fill="black"/>
<path d="M39.79 16.47V40.97H48.75V26.67C48.75 26.67 49.21 22.19 53.28 22.19C57.09 22.19 57.86 25.23 57.86 27.08C57.86 28.93 57.86 40.98 57.86 40.98H66.92V22.65C66.92 22.65 66.15 14.98 57.96 14.98C53.79 14.98 50.96 16.47 50.96 16.47C50.96 16.47 45.04 20.13 39.79 16.47Z" fill="black"/>
<path d="M68.05 15.5C68.05 15.5 66.92 25.59 79.89 28.88C79.89 28.88 76.18 20.64 77.68 15.5H68.05Z" fill="black"/>
<path d="M87.71 15.5L76.6 40.98H85.55L95.85 15.5H87.71Z" fill="black"/>
</svg>
