<svg width="102" height="30" viewBox="0 0 102 30" fill="none" xmlns="http://www.w3.org/2000/svg">
<path d="M99.08 14.11C97.75 12.73 95.71 11.75 92.97 11.18C91.98 10.95 91.19 10.76 90.59 10.61C89.99 10.46 89.53 10.29 89.22 10.11C88.91 9.92998 88.71 9.73998 88.62 9.53998C88.53 9.33998 88.49 9.08998 88.5 8.76998C88.51 8.16998 88.8 7.69998 89.37 7.34998C89.94 7.00998 90.69 6.83998 91.6 6.85998C92.19 6.86998 93.65 6.92998 94.24 7.03998C96.61 7.48998 98.99 6.24998 100.13 4.19998L101.29 2.12998C98.38 0.919984 94.49 0.279983 91.38 0.229983C89.48 0.199983 87.74 0.399983 86.18 0.839983C84.62 1.27998 83.28 1.90999 82.17 2.73998C81.06 3.56998 80.2 4.58998 79.59 5.79998C78.98 7.00998 78.68 7.68998 78.65 9.19998C78.62 11.29 79.2 12.93 80.41 14.13C81.62 15.33 83.75 16.26 86.82 16.91C87.73 17.1 88.9 17.29 89.46 17.46C90.02 17.63 90.45 17.81 90.74 18.01C91.03 18.21 91.22 18.42 91.31 18.66C91.4 18.89 91.44 19.18 91.43 19.54C91.42 20.14 91.12 20.63 90.53 21.01C89.94 21.39 89.18 21.57 88.27 21.56C85.8 21.52 81.53 21.59 78.76 19.73L78.63 27.4C82.01 29.28 83.87 29.34 87.43 29.4C89.41 29.43 91.22 29.22 92.88 28.77C94.54 28.32 95.96 27.67 97.14 26.82C98.33 25.97 99.26 24.92 99.94 23.66C100.62 22.4 100.97 20.97 101 19.38C101.06 17.25 100.41 15.5 99.08 14.11Z" fill="black"/>
<path d="M41.69 8.73999V29.39H32.38V0.23999C37.52 0.23999 41.69 4.04999 41.69 8.73999Z" fill="black"/>
<path d="M46.1 19.26C46.1 22.93 47.19 25.3 49.23 27.05C51.18 28.72 53.67 29.4 56.29 29.4C58.67 29.4 60.52 28.89 62.01 28.33C69.75 25.41 74.26 27.78 74.26 27.78V1.81H64.94V19.83C64.94 19.83 63.16 21.7 60.18 21.79C57.2 21.88 55.39 20.09 55.39 16L55.4 1.81H46.09V19.26H46.1Z" fill="black"/>
<path d="M9.96001 29.39V20.06V13.85V9.05C9.96001 7.56 9.96 7.6 11.08 7.6L13.21 7.57C16.68 7.57 20.03 7.27 20.03 11.3C20.03 14.69 18.33 16.08 14.21 16.08V23.59H15.75C19.97 23.59 23.2 22.72 25.45 20.99C27.69 19.26 28.82 15.4 28.82 12.26C28.82 9.11 27.7 4.58 25.45 2.85C23.21 1.12 19.97 0.25 15.75 0.25H0.190002V22.57V29.4H9.96001V29.39Z" fill="black"/>
</svg>
